# xmcd
#
# Track frame offsets:
#	150
#	16088
#	34743
#	50025
#	67755
#	84402
#	103123
#	120859
#	137804
#	154309
#	169043
#	185056
#	201291
#	220937
#	232913
#	249908
#	270353
#	285720
#
# Disc length: 4016 seconds
#
# Revision: 1
# Processed by: cddbd v1.5.2PL0 Copyright (c) Steve Scherf et al.
# Submitted via: audiograbber 1.83.01
#
DISCID=f20fae12
DTITLE=Various Artist - Hc109
DYEAR=2005
DGENRE=Country
TTITLE0=Keith, Toby - Honky Tonk U
TTITLE1=Urban, Keith - Making Memories Of Us
TTITLE2=Gretchen Wilson - Homewrecker
TTITLE3=Carey, Michael - Watching You Watching Me
TTITLE4=Elam, Katrina - I Want A Cowboy
TTITLE5=Pinson, Bobby - Dont Ask Me How I Know
TTITLE6=Big and Rich - Big Time
TTITLE7=Tritt, Travis - I See Me
TTITLE8=Merrit, Tift - Stray Paper (Edit)
TTITLE9=Fairchild, Shelly - Tiny Town
TTITLE10=Shedaisy - Don't Worry 'Bout A Thing
TTITLE11=Dotson, Amber - I'll Try Anything (Album)
TTITLE12=Huges, Jedd - Soldier For The Lonely
TTITLE13=Chase, Diane - I Hate Love
TTITLE14=Elam, Katrina - I Won't Say Goodbye
TTITLE15=Chesney, Kenny - Guitars And Tiki Bars
TTITLE16=Fogerty, John - Wicked Old Witch
TTITLE17=Vautour, J.r. - Don't Know It Yet
EXTD=
EXTT0=
EXTT1=
EXTT2=
EXTT3=
EXTT4=
EXTT5=
EXTT6=
EXTT7=
EXTT8=
EXTT9=
EXTT10=
EXTT11=
EXTT12=
EXTT13=
EXTT14=
EXTT15=
EXTT16=
EXTT17=
PLAYORDER=
